# xmcd
#
# Track frame offsets: 
#        150
#        25673
#        58105
#        88025
#        123779
#        145717
#        178670
#        209846
#        230614
#
# Disc length: 3740 seconds
#
# Revision: 0
# Processed by: cddbd v1.5.2PL0 Copyright (c) Steve Scherf et al.
# Submitted via: ExactAudioCopyFreeDBPlugin 1.0
#
DISCID=7b0e9a09
DTITLE=Paul Black and the Flip Kings - Live at the Harmony
DYEAR=2005
DGENRE=Blues
TTITLE0=The Bourgeois Blues
TTITLE1=I'm Gonna Murder My Baby
TTITLE2=I Had My Fun
TTITLE3=Malted Milk
TTITLE4=Factory Girl
TTITLE5=V-8 Ford Blues
TTITLE6=Forty-Four Blues
TTITLE7=Raining In My Heart
TTITLE8=Mystery Train
EXTD=
EXTT0=
EXTT1=
EXTT2=
EXTT3=
EXTT4=
EXTT5=
EXTT6=
EXTT7=
EXTT8=
PLAYORDER=
